<?xml version="1.0" standalone="no"?>
<!DOCTYPE svg PUBLIC "-//W3C//DTD SVG 20010904//EN"
 "http://www.w3.org/TR/2001/REC-SVG-20010904/DTD/svg10.dtd">
<svg version="1.0" xmlns="http://www.w3.org/2000/svg"
 width="300.000000pt" height="300.000000pt" viewBox="0 0 300.000000 300.000000"
 preserveAspectRatio="xMidYMid meet">
<metadata>
Created by potrace 1.11, written by Peter Selinger 2001-2013
</metadata>
<g transform="translate(0.000000,300.000000) scale(0.100000,-0.100000)"
fill="#000000" stroke="none">
<path d="M1295 2408 c-4 -40 -9 -82 -11 -93 -2 -11 -5 -50 -6 -86 -1 -65 -2
-67 -35 -83 -30 -14 -32 -19 -27 -50 5 -33 3 -36 -29 -49 -91 -38 -201 -195
-241 -342 -58 -217 -25 -541 76 -755 48 -101 82 -152 135 -203 77 -75 138 -98
268 -99 l66 -1 -2 -145 c-3 -164 -6 -192 -24 -192 -15 0 -41 -37 -46 -64 -3
-13 -25 -27 -68 -42 -95 -34 -124 -68 -136 -158 l-7 -46 416 0 c244 0 417 4
421 9 8 15 -33 116 -59 144 -33 35 -72 53 -146 68 -76 15 -90 23 -90 54 0 13
-5 25 -10 27 -7 2 -11 61 -13 151 -1 81 -4 147 -7 147 -3 0 -7 15 -8 32 -1 18
-5 45 -8 59 -4 23 5 37 58 90 72 73 113 139 134 214 21 78 38 265 24 265 -3 0
-6 44 -7 98 -7 301 -36 450 -113 583 -56 96 -162 173 -242 174 -20 0 -36 2
-35 5 5 19 -27 49 -55 52 -30 3 -33 7 -68 108 -47 133 -76 200 -88 200 -5 0
-13 -33 -17 -72z"/>
</g>
</svg>
